<svg width="216" height="214" viewBox="0 0 216 214" fill="none" xmlns="http://www.w3.org/2000/svg">
<g opacity="0.8" clip-path="url(#clip0_2234_9590)">
<path d="M34.0829 152.335C35.2502 153.232 35.4507 154.783 34.5507 155.954C33.6506 157.126 32.1002 157.331 30.9329 156.434C29.7656 155.537 29.5651 153.986 30.4652 152.815C31.3652 151.644 33.0129 151.513 34.0829 152.335Z" fill="#FFCF2D"/>
<path d="M47.5082 134.864C48.6755 135.761 48.876 137.312 47.9759 138.484C47.0759 139.655 45.5255 139.86 44.3582 138.963C43.1909 138.066 42.9904 136.515 43.8905 135.344C44.7155 134.27 46.4382 134.042 47.5082 134.864Z" fill="#FFCF2D"/>
<path d="M60.8583 117.492C62.0256 118.389 62.2261 119.94 61.326 121.112C60.426 122.283 58.8756 122.488 57.7083 121.591C56.541 120.694 56.3405 119.143 57.2406 117.972C58.1406 116.801 59.7883 116.67 60.8583 117.492Z" fill="#FFCF2D"/>
<path d="M74.2836 100.022C75.4509 100.92 75.6514 102.471 74.7513 103.642C73.8513 104.813 72.3008 105.019 71.1336 104.122C69.9663 103.225 69.7658 101.673 70.6659 100.502C71.5659 99.3311 73.2136 99.2002 74.2836 100.022Z" fill="#FFCF2D"/>
<path d="M87.7089 82.5528C88.8762 83.4498 89.0766 85.001 88.1766 86.1721C87.2766 87.3433 85.7261 87.5489 84.5589 86.6518C83.3916 85.7548 83.1911 84.2037 84.0911 83.0325C84.9162 81.9589 86.6389 81.7305 87.7089 82.5528Z" fill="#FFCF2D"/>
<path d="M101.134 65.0831C102.301 65.9801 102.502 67.5312 101.602 68.7024C100.702 69.8736 99.1514 70.0792 97.9841 69.1821C96.8169 68.2851 96.6164 66.7339 97.5164 65.5628C98.4165 64.3916 100.064 64.2608 101.134 65.0831Z" fill="#FFCF2D"/>
<path d="M114.484 47.711C115.652 48.608 115.852 50.1592 114.952 51.3303C114.052 52.5015 112.502 52.7071 111.334 51.81C110.167 50.913 109.967 49.3619 110.867 48.1907C111.767 47.0195 113.414 46.8887 114.484 47.711Z" fill="#FFCF2D"/>
<path d="M127.91 30.2413C129.077 31.1383 129.277 32.6894 128.377 33.8606C127.477 35.0318 125.927 35.2374 124.76 34.3403C123.592 33.4433 123.392 31.8921 124.292 30.721C125.192 29.5498 126.84 29.419 127.91 30.2413Z" fill="#FFCF2D"/>
<path d="M141.335 12.7715C142.502 13.6686 142.703 15.2197 141.803 16.3909C140.903 17.562 139.352 17.7676 138.185 16.8706C137.018 15.9736 136.817 14.4224 137.717 13.2513C138.542 12.1777 140.265 11.9493 141.335 12.7715Z" fill="#FFCF2D"/>
<path d="M48.5766 163.473C49.7439 164.37 49.9443 165.921 49.0443 167.092C48.1443 168.263 46.5938 168.469 45.4265 167.572C44.2593 166.675 44.0588 165.124 44.9588 163.952C45.8588 162.781 47.4093 162.576 48.5766 163.473Z" fill="#FFCF2D"/>
<path d="M62.0019 146.003C63.1692 146.9 63.3696 148.451 62.4696 149.622C61.5696 150.793 60.0191 150.999 58.8518 150.102C57.6845 149.205 57.4841 147.654 58.3841 146.483C59.2091 145.409 60.8346 145.106 62.0019 146.003Z" fill="#FFCF2D"/>
<path d="M75.352 128.631C76.5193 129.528 76.7197 131.079 75.8197 132.25C74.9197 133.421 73.3692 133.627 72.2019 132.73C71.0346 131.833 70.8342 130.282 71.7342 129.111C72.6342 127.939 74.1847 127.734 75.352 128.631Z" fill="#FFCF2D"/>
<path d="M88.7773 111.161C89.9446 112.058 90.145 113.609 89.245 114.781C88.345 115.952 86.7945 116.157 85.6272 115.26C84.4599 114.363 84.2595 112.812 85.1595 111.641C86.0595 110.47 87.61 110.264 88.7773 111.161Z" fill="#FFCF2D"/>
<path d="M102.203 93.6905C103.37 94.5875 103.57 96.1387 102.67 97.3098C101.77 98.481 100.22 98.6866 99.0525 97.7895C97.8852 96.8925 97.6848 95.3414 98.5848 94.1702C99.4098 93.0966 101.035 92.7934 102.203 93.6905Z" fill="#FFCF2D"/>
<path d="M115.628 76.2208C116.795 77.1178 116.996 78.6689 116.096 79.8401C115.196 81.0113 113.645 81.2169 112.478 80.3198C111.311 79.4228 111.11 77.8716 112.01 76.7005C112.91 75.5293 114.461 75.3237 115.628 76.2208Z" fill="#FFCF2D"/>
<path d="M128.978 58.8487C130.145 59.7457 130.346 61.2969 129.446 62.468C128.546 63.6392 126.995 63.8448 125.828 62.9477C124.661 62.0507 124.46 60.4996 125.36 59.3284C126.26 58.1572 127.811 57.9517 128.978 58.8487Z" fill="#FFCF2D"/>
<path d="M142.403 41.3789C143.571 42.276 143.771 43.8271 142.871 44.9983C141.971 46.1695 140.42 46.3751 139.253 45.478C138.086 44.581 137.885 43.0298 138.785 41.8587C139.685 40.6875 141.236 40.4819 142.403 41.3789Z" fill="#FFCF2D"/>
<path d="M155.829 23.9092C156.996 24.8063 157.196 26.3574 156.296 27.5286C155.396 28.6997 153.846 28.9053 152.678 28.0083C151.511 27.1113 151.311 25.5601 152.211 24.3889C153.036 23.3154 154.661 23.0122 155.829 23.9092Z" fill="#FFCF2D"/>
<path d="M5.1928 130.133C6.36008 131.03 6.56053 132.581 5.66052 133.752C4.7605 134.923 3.21003 135.129 2.04274 134.232C0.875462 133.335 0.675012 131.784 1.57503 130.613C2.47504 129.441 4.02552 129.236 5.1928 130.133Z" fill="#FFCF2D"/>
<path d="M18.6181 112.663C19.7854 113.56 19.9858 115.111 19.0858 116.282C18.1858 117.454 16.6353 117.659 15.468 116.762C14.3008 115.865 14.1003 114.314 15.0003 113.143C15.8253 112.069 17.4508 111.766 18.6181 112.663Z" fill="#FFCF2D"/>
<path d="M31.9682 95.2911C33.1355 96.1881 33.3359 97.7392 32.4359 98.9104C31.5359 100.082 29.9854 100.287 28.8181 99.3901C27.6509 98.4931 27.5254 96.8443 28.3504 95.7708C29.2504 94.5996 30.8009 94.394 31.9682 95.2911Z" fill="#FFCF2D"/>
<path d="M45.3935 77.8213C46.5608 78.7184 46.7612 80.2695 45.8612 81.4407C44.9612 82.6118 43.4107 82.8174 42.2434 81.9204C41.0761 81.0234 40.9507 79.3746 41.7757 78.3011C42.6007 77.2275 44.2262 76.9243 45.3935 77.8213Z" fill="#FFCF2D"/>
<path d="M58.8188 60.3516C59.9861 61.2486 60.1865 62.7998 59.2865 63.971C58.3865 65.1421 56.836 65.3477 55.6687 64.4507C54.5014 63.5536 54.301 62.0025 55.201 60.8313C56.026 59.7578 57.6515 59.4546 58.8188 60.3516Z" fill="#FFCF2D"/>
<path d="M72.2441 42.8809C73.4114 43.7779 73.6118 45.3291 72.7118 46.5002C71.8118 47.6714 70.2613 47.877 69.094 46.98C67.9267 46.0829 67.7263 44.5318 68.6263 43.3606C69.5263 42.1895 71.0768 41.9839 72.2441 42.8809Z" fill="#FFCF2D"/>
<path d="M85.5942 25.5088C86.7614 26.4059 86.9619 27.957 86.0619 29.1282C85.1619 30.2993 83.6114 30.5049 82.4441 29.6079C81.2768 28.7109 81.0764 27.1597 81.9764 25.9886C82.8764 24.8174 84.4269 24.6118 85.5942 25.5088Z" fill="#FFCF2D"/>
<path d="M99.0195 8.0391C100.187 8.93614 100.387 10.4873 99.4872 11.6585C98.5872 12.8296 97.0367 13.0352 95.8694 12.1382C94.7021 11.2411 94.5017 9.68999 95.4017 8.51883C96.3017 7.34767 97.8522 7.14207 99.0195 8.0391Z" fill="#FFCF2D"/>
<path d="M19.6865 141.272C20.8537 142.169 21.0542 143.72 20.1542 144.891C19.2542 146.062 17.6064 146.193 16.5364 145.371C15.3691 144.474 15.1687 142.922 16.0687 141.751C16.9687 140.58 18.5192 140.374 19.6865 141.272Z" fill="#FFCF2D"/>
<path d="M33.1117 123.801C34.279 124.698 34.4795 126.249 33.5795 127.42C32.6794 128.591 31.129 128.797 29.9617 127.9C28.7944 127.003 28.594 125.452 29.494 124.281C30.319 123.207 31.9445 122.904 33.1117 123.801Z" fill="#FFCF2D"/>
<path d="M46.4618 106.429C47.6291 107.326 47.8296 108.877 46.9296 110.048C46.0295 111.219 44.4791 111.425 43.3118 110.528C42.1445 109.631 41.9441 108.08 42.8441 106.908C43.7441 105.737 45.2946 105.532 46.4618 106.429Z" fill="#FFCF2D"/>
<path d="M59.8871 88.959C61.0544 89.8561 61.2549 91.4072 60.3549 92.5784C59.4548 93.7495 57.9044 93.9551 56.7371 93.0581C55.5698 92.1611 55.3693 90.6099 56.2694 89.4387C57.1694 88.2676 58.7199 88.062 59.8871 88.959Z" fill="#FFCF2D"/>
<path d="M73.3124 71.4893C74.4797 72.3863 74.6802 73.9375 73.7801 75.1086C72.8801 76.2798 71.3297 76.4854 70.1624 75.5884C68.9951 74.6913 68.7946 73.1402 69.6947 71.969C70.5197 70.8955 72.1451 70.5923 73.3124 71.4893Z" fill="#FFCF2D"/>
<path d="M86.7377 54.0196C87.905 54.9166 88.1055 56.4678 87.2054 57.6389C86.3054 58.8101 84.7549 59.0157 83.5877 58.1186C82.4204 57.2216 82.2199 55.6705 83.1199 54.4993C84.02 53.3281 85.5704 53.1225 86.7377 54.0196Z" fill="#FFCF2D"/>
<path d="M100.088 36.6475C101.255 37.5445 101.456 39.0957 100.556 40.2669C99.6555 41.438 98.105 41.6436 96.9378 40.7466C95.7705 39.8495 95.57 38.2984 96.47 37.1272C97.3701 35.9561 98.9205 35.7505 100.088 36.6475Z" fill="#FFCF2D"/>
<path d="M113.513 19.1778C114.68 20.0748 114.881 21.626 113.981 22.7971C113.081 23.9683 111.53 24.1739 110.363 23.2768C109.196 22.3798 108.995 20.8287 109.895 19.6575C110.795 18.4863 112.346 18.2807 113.513 19.1778Z" fill="#FFCF2D"/>
<path d="M126.938 1.70806C128.106 2.6051 128.306 4.15623 127.406 5.32739C126.506 6.49855 124.956 6.70415 123.788 5.80712C122.621 4.91008 122.421 3.35893 123.321 2.18777C124.146 1.11421 125.771 0.811024 126.938 1.70806Z" fill="#FFCF2D"/>
<path d="M62.9736 174.536C64.1408 175.433 64.3413 176.984 63.4413 178.156C62.5413 179.327 60.9908 179.532 59.8235 178.635C58.6562 177.738 58.4558 176.187 59.3558 175.016C60.2558 173.845 61.9036 173.714 62.9736 174.536Z" fill="#FFCF2D"/>
<path d="M76.3989 157.066C77.5661 157.963 77.7666 159.515 76.8666 160.686C75.9665 161.857 74.4161 162.063 73.2488 161.166C72.0815 160.268 71.8811 158.717 72.7811 157.546C73.6061 156.473 75.3288 156.244 76.3989 157.066Z" fill="#FFCF2D"/>
<path d="M89.749 139.694C90.9162 140.591 91.1167 142.143 90.2167 143.314C89.3167 144.485 87.7662 144.69 86.5989 143.793C85.4316 142.896 85.2312 141.345 86.1312 140.174C87.0312 139.003 88.6789 138.872 89.749 139.694Z" fill="#FFCF2D"/>
<path d="M103.174 122.225C104.342 123.122 104.542 124.673 103.642 125.844C102.742 127.015 101.191 127.221 100.024 126.324C98.8569 125.427 98.6565 123.876 99.5565 122.704C100.456 121.533 102.104 121.402 103.174 122.225Z" fill="#FFCF2D"/>
<path d="M116.6 104.755C117.767 105.652 117.967 107.203 117.067 108.374C116.167 109.545 114.617 109.751 113.449 108.854C112.282 107.957 112.082 106.406 112.982 105.235C113.807 104.161 115.53 103.933 116.6 104.755Z" fill="#FFCF2D"/>
<path d="M130.025 87.2842C131.192 88.1813 131.393 89.7324 130.493 90.9036C129.593 92.0747 128.042 92.2803 126.875 91.3833C125.707 90.4863 125.507 88.9351 126.407 87.7639C127.307 86.5928 128.955 86.4619 130.025 87.2842Z" fill="#FFCF2D"/>
<path d="M143.375 69.9121C144.542 70.8092 144.743 72.3603 143.843 73.5315C142.943 74.7027 141.392 74.9083 140.225 74.0112C139.058 73.1142 138.857 71.563 139.757 70.3919C140.657 69.2207 142.305 69.0899 143.375 69.9121Z" fill="#FFCF2D"/>
<path d="M156.8 52.4424C157.968 53.3395 158.168 54.8906 157.268 56.0618C156.368 57.2329 154.817 57.4385 153.65 56.5415C152.483 55.6445 152.282 54.0933 153.182 52.9221C154.082 51.751 155.73 51.6201 156.8 52.4424Z" fill="#FFCF2D"/>
<path d="M170.226 34.9727C171.393 35.8697 171.593 37.4209 170.693 38.592C169.793 39.7632 168.243 39.9688 167.075 39.0718C165.908 38.1747 165.708 36.6236 166.608 35.4524C167.433 34.3789 169.155 34.1504 170.226 34.9727Z" fill="#FFCF2D"/>
<path d="M77.4672 185.674C78.6345 186.571 78.8349 188.122 77.9349 189.293C77.0349 190.464 75.4844 190.67 74.3172 189.773C73.1499 188.876 72.9494 187.325 73.8494 186.154C74.7495 184.982 76.2999 184.777 77.4672 185.674Z" fill="#FFCF2D"/>
<path d="M90.8925 168.204C92.0598 169.101 92.2602 170.652 91.3602 171.823C90.4602 172.995 88.9097 173.2 87.7424 172.303C86.5752 171.406 86.3747 169.855 87.2747 168.684C88.0998 167.61 89.7252 167.307 90.8925 168.204Z" fill="#FFCF2D"/>
<path d="M104.243 150.832C105.41 151.729 105.61 153.28 104.71 154.451C103.81 155.623 102.26 155.828 101.093 154.931C99.9253 154.034 99.7248 152.483 100.625 151.312C101.525 150.141 103.075 149.935 104.243 150.832Z" fill="#FFCF2D"/>
<path d="M118.136 136.982C119.005 135.85 118.796 134.229 117.668 133.362C116.54 132.495 114.92 132.71 114.05 133.842C113.18 134.974 113.39 136.594 114.518 137.461C115.646 138.328 117.266 138.114 118.136 136.982Z" fill="#FFCF2D"/>
<path d="M131.093 115.893C132.26 116.79 132.461 118.341 131.561 119.512C130.661 120.683 129.11 120.889 127.943 119.992C126.776 119.095 126.575 117.544 127.475 116.372C128.3 115.299 129.926 114.996 131.093 115.893Z" fill="#FFCF2D"/>
<path d="M144.518 98.4229C145.686 99.3199 145.886 100.871 144.986 102.042C144.086 103.213 142.536 103.419 141.368 102.522C140.201 101.625 140.001 100.074 140.901 98.9026C141.801 97.7315 143.351 97.5259 144.518 98.4229Z" fill="#FFCF2D"/>
<path d="M157.869 81.0508C159.036 81.9479 159.236 83.499 158.336 84.6702C157.436 85.8413 155.886 86.0469 154.719 85.1499C153.551 84.2529 153.351 82.7017 154.251 81.5305C155.151 80.3594 156.701 80.1538 157.869 81.0508Z" fill="#FFCF2D"/>
<path d="M171.762 67.2004C172.631 66.0685 172.422 64.4481 171.294 63.5811C170.166 62.7141 168.546 62.9289 167.676 64.0608C166.806 65.1927 167.016 66.8132 168.144 67.6802C169.272 68.5471 170.892 68.3324 171.762 67.2004Z" fill="#FFCF2D"/>
<path d="M184.719 46.1114C185.886 47.0084 186.087 48.5595 185.187 49.7307C184.287 50.9019 182.736 51.1075 181.569 50.2104C180.402 49.3134 180.201 47.7622 181.101 46.5911C181.926 45.5175 183.552 45.2143 184.719 46.1114Z" fill="#FFCF2D"/>
<path d="M91.9609 196.813C93.1282 197.71 93.3286 199.261 92.4286 200.432C91.5286 201.603 89.9781 201.809 88.8108 200.912C87.6435 200.015 87.4431 198.463 88.3431 197.292C89.2431 196.121 90.7936 195.916 91.9609 196.813Z" fill="#FFCF2D"/>
<path d="M105.386 179.343C106.553 180.24 106.754 181.791 105.854 182.962C104.954 184.133 103.403 184.339 102.236 183.442C101.069 182.545 100.868 180.994 101.768 179.823C102.593 178.749 104.219 178.446 105.386 179.343Z" fill="#FFCF2D"/>
<path d="M118.736 161.971C119.904 162.868 120.104 164.419 119.204 165.59C118.304 166.761 116.753 166.967 115.586 166.07C114.419 165.173 114.218 163.622 115.118 162.45C116.018 161.279 117.569 161.074 118.736 161.971Z" fill="#FFCF2D"/>
<path d="M132.162 144.501C133.329 145.398 133.529 146.949 132.629 148.12C131.729 149.292 130.179 149.497 129.012 148.6C127.844 147.703 127.644 146.152 128.544 144.981C129.444 143.81 130.994 143.604 132.162 144.501Z" fill="#FFCF2D"/>
<path d="M145.587 127.031C146.754 127.928 146.955 129.479 146.055 130.651C145.155 131.822 143.604 132.027 142.437 131.13C141.27 130.233 141.069 128.682 141.969 127.511C142.794 126.437 144.42 126.134 145.587 127.031Z" fill="#FFCF2D"/>
<path d="M159.012 109.561C160.179 110.458 160.38 112.009 159.48 113.18C158.58 114.351 157.029 114.557 155.862 113.66C154.695 112.763 154.494 111.211 155.394 110.04C156.294 108.869 157.845 108.664 159.012 109.561Z" fill="#FFCF2D"/>
<path d="M172.362 92.1885C173.53 93.0856 173.73 94.6367 172.83 95.8079C171.93 96.979 170.379 97.1846 169.212 96.2876C168.045 95.3906 167.844 93.8394 168.744 92.6682C169.644 91.4971 171.195 91.2915 172.362 92.1885Z" fill="#FFCF2D"/>
<path d="M185.788 74.7188C186.955 75.6158 187.155 77.167 186.255 78.3381C185.355 79.5093 183.805 79.7149 182.637 78.8179C181.47 77.9208 181.27 76.3697 182.17 75.1985C183.07 74.0274 184.62 73.8218 185.788 74.7188Z" fill="#FFCF2D"/>
<path d="M199.213 57.2491C200.38 58.1461 200.581 59.6973 199.681 60.8684C198.781 62.0396 197.23 62.2452 196.063 61.3481C194.895 60.4511 194.695 58.8999 195.595 57.7288C196.42 56.6552 198.046 56.352 199.213 57.2491Z" fill="#FFCF2D"/>
<path d="M106.357 207.876C107.525 208.773 107.725 210.324 106.825 211.495C105.925 212.667 104.375 212.872 103.207 211.975C102.04 211.078 101.84 209.527 102.74 208.356C103.64 207.185 105.287 207.054 106.357 207.876Z" fill="#FFCF2D"/>
<path d="M119.783 190.406C120.95 191.303 121.15 192.854 120.25 194.026C119.35 195.197 117.8 195.402 116.633 194.505C115.465 193.608 115.265 192.057 116.165 190.886C116.99 189.812 118.713 189.584 119.783 190.406Z" fill="#FFCF2D"/>
<path d="M133.133 173.034C134.3 173.931 134.5 175.482 133.6 176.654C132.7 177.825 131.15 178.03 129.983 177.133C128.815 176.236 128.615 174.685 129.515 173.514C130.415 172.343 132.063 172.212 133.133 173.034Z" fill="#FFCF2D"/>
<path d="M146.558 155.564C147.725 156.462 147.926 158.013 147.026 159.184C146.126 160.355 144.575 160.561 143.408 159.664C142.241 158.767 142.04 157.215 142.94 156.044C143.84 154.873 145.488 154.742 146.558 155.564Z" fill="#FFCF2D"/>
<path d="M159.983 138.094C161.151 138.991 161.351 140.542 160.451 141.713C159.551 142.884 158.001 143.09 156.833 142.193C155.666 141.296 155.466 139.745 156.366 138.574C157.191 137.5 158.913 137.272 159.983 138.094Z" fill="#FFCF2D"/>
<path d="M173.409 120.624C174.576 121.521 174.776 123.072 173.876 124.243C172.976 125.415 171.426 125.62 170.259 124.723C169.091 123.826 168.891 122.275 169.791 121.104C170.691 119.933 172.339 119.802 173.409 120.624Z" fill="#FFCF2D"/>
<path d="M186.759 103.252C187.926 104.149 188.126 105.7 187.226 106.871C186.326 108.042 184.776 108.248 183.609 107.351C182.441 106.454 182.241 104.903 183.141 103.732C184.041 102.561 185.689 102.43 186.759 103.252Z" fill="#FFCF2D"/>
<path d="M200.184 85.7823C201.351 86.6793 201.552 88.2305 200.652 89.4016C199.752 90.5728 198.201 90.7784 197.034 89.8813C195.867 88.9843 195.666 87.4332 196.566 86.262C197.466 85.0908 199.114 84.96 200.184 85.7823Z" fill="#FFCF2D"/>
<path d="M213.609 68.3126C214.777 69.2096 214.977 70.7607 214.077 71.9319C213.177 73.103 211.627 73.3086 210.459 72.4116C209.292 71.5146 209.092 69.9634 209.992 68.7923C210.817 67.7187 212.539 67.4903 213.609 68.3126Z" fill="#FFCF2D"/>
</g>
<defs>
<clipPath id="clip0_2234_9590">
<rect width="181.184" height="132.739" fill="white" transform="translate(0 132.662) rotate(-52.4584)"/>
</clipPath>
</defs>
</svg>
